<svg xmlns="http://www.w3.org/2000/svg" xmlns:xlink="http://www.w3.org/1999/xlink" width="1920" zoomAndPan="magnify" viewBox="0 0 1440 809.999993" height="1080" preserveAspectRatio="xMidYMid meet" version="1.0"><defs><clipPath id="78e82b37a7"><path d="M 488 26.101562 L 673 26.101562 L 673 213 L 488 213 Z M 488 26.101562 " clip-rule="nonzero"/></clipPath></defs><path fill="#ffffff" d="M 528.765625 309.886719 C 528.765625 370.933594 496.570312 385.382812 465.628906 388.003906 C 435.09375 390.589844 391.105469 377.65625 389.035156 320.75 C 386.964844 263.847656 420.085938 231.773438 458.382812 231.773438 C 492.539062 231.773438 528.765625 246.257812 528.765625 309.886719 Z M 629.351562 234.621094 C 585.253906 234.621094 547.113281 271.554688 549.496094 337.082031 C 551.882812 402.609375 602.535156 408.726562 637.695312 405.75 C 673.324219 402.730469 710.398438 394.863281 710.398438 324.570312 C 710.398438 251.300781 668.683594 234.621094 629.351562 234.621094 Z M 629.351562 234.621094 " fill-opacity="1" fill-rule="nonzero"/><path fill="#634d9f" d="M 989.332031 716.921875 C 939.945312 711.445312 932.367188 683.929688 920.652344 657.90625 C 899.214844 610.292969 846.511719 651.585938 834.84375 609.589844 C 826.894531 580.972656 834.847656 468.316406 834.847656 392.941406 C 834.847656 317.566406 798.0625 150.269531 628.863281 150.269531 C 590.726562 150.269531 527.761719 169.910156 477.824219 227.613281 C 471.316406 226.394531 464.738281 225.898438 458.382812 225.898438 C 438.921875 225.898438 420.792969 233.582031 407.339844 247.527344 C 395.539062 259.761719 381.761719 282.433594 383.164062 320.964844 C 384.027344 344.726562 391.832031 363.296875 406.363281 376.164062 C 407.480469 377.15625 408.621094 378.089844 409.773438 378.976562 C 408.074219 388.3125 403.746094 410.980469 402.648438 433.804688 C 391.613281 663.609375 410.003906 783.105469 638.058594 781.265625 C 866.109375 779.429688 1016.921875 772.074219 1029.792969 772.074219 C 1058.300781 772.074219 1047.351562 723.355469 989.332031 716.921875 Z M 412.394531 365.722656 C 401.5 355.117188 395.609375 339.9375 394.90625 320.539062 C 393.914062 293.304688 401.140625 270.875 415.796875 255.683594 C 427.019531 244.050781 442.140625 237.644531 458.382812 237.644531 C 462.144531 237.644531 465.722656 237.835938 469.148438 238.191406 C 444.640625 269.796875 424.078125 311.511719 412.394531 365.722656 Z M 636.667969 402.710938 C 606.132812 405.296875 562.144531 392.363281 560.074219 335.457031 C 558.003906 278.554688 591.125 246.480469 629.421875 246.480469 C 663.578125 246.480469 699.804688 260.964844 699.804688 324.59375 C 699.804688 385.640625 667.609375 400.089844 636.667969 402.710938 Z M 636.667969 402.710938 " fill-opacity="1" fill-rule="nonzero"/><path fill="#2e2767" d="M 831.34375 537.15625 C 831.34375 537.15625 774.070312 526.285156 778.410156 459.023438 C 782.75 391.761719 834.847656 392.941406 834.847656 392.941406 C 833.441406 466.003906 831.34375 537.15625 831.34375 537.15625 Z M 767.023438 529.21875 C 751.480469 498.621094 694.59375 519.640625 709.929688 561.796875 C 725.265625 603.953125 792.464844 579.308594 767.023438 529.21875 Z M 418.410156 666.328125 C 418.410156 666.328125 489.546875 647.0625 475.128906 580.144531 C 461.902344 518.765625 400.230469 528.023438 400.230469 528.023438 C 400.230469 625 418.410156 666.328125 418.410156 666.328125 Z M 513.175781 621.683594 C 495.671875 621.683594 486.664062 636.242188 487.476562 657.101562 C 488.648438 687.152344 540.574219 683.859375 542.484375 657.101562 C 543.90625 637.203125 536.511719 621.683594 513.175781 621.683594 Z M 857.996094 657.238281 C 842.261719 657.238281 834.160156 670.324219 834.890625 689.078125 C 835.941406 716.09375 882.625 713.132812 884.339844 689.078125 C 885.621094 671.1875 878.972656 657.238281 857.996094 657.238281 Z M 857.996094 657.238281 " fill-opacity="0.349" fill-rule="nonzero"/><g clip-path="url(#78e82b37a7)"><path fill="#1a1448" d="M 538.425781 76.171875 C 540.046875 73.09375 540.789062 69.773438 540.652344 66.21875 C 540.347656 63.925781 540.039062 61.636719 539.730469 59.347656 C 538.503906 54.96875 536.285156 51.167969 533.082031 47.945312 C 531.339844 46.597656 529.59375 45.25 527.851562 43.90625 C 523.820312 41.566406 519.46875 40.390625 514.804688 40.378906 C 514.550781 40.378906 514.296875 40.378906 514.042969 40.378906 C 510.484375 40.242188 507.164062 40.984375 504.085938 42.601562 C 500.878906 43.644531 498.105469 45.425781 495.765625 47.945312 C 493.246094 50.285156 491.460938 53.058594 490.421875 56.261719 C 488.800781 59.339844 488.058594 62.660156 488.195312 66.21875 C 488.5 68.507812 488.808594 70.796875 489.117188 73.085938 C 490.34375 77.464844 492.5625 81.265625 495.765625 84.488281 C 497.507812 85.835938 499.253906 87.183594 500.996094 88.527344 C 505.027344 90.867188 509.378906 92.042969 514.042969 92.058594 C 514.296875 92.058594 514.550781 92.058594 514.804688 92.058594 C 518.363281 92.191406 521.683594 91.449219 524.761719 89.832031 C 524.90625 89.785156 525.035156 89.71875 525.175781 89.667969 C 545.203125 110.5 559.707031 135.726562 567.546875 163.164062 C 572.375 161.390625 577.597656 159.746094 582.996094 157.761719 C 574.433594 128.285156 558.941406 101.160156 537.414062 78.664062 C 537.800781 77.863281 538.144531 77.035156 538.425781 76.171875 Z M 513.769531 76.414062 C 507.425781 76.414062 502.28125 71.273438 502.28125 64.929688 C 502.28125 58.585938 507.425781 53.445312 513.769531 53.445312 C 520.113281 53.445312 525.257812 58.585938 525.257812 64.929688 C 525.257812 71.273438 520.113281 76.414062 513.769531 76.414062 Z M 662.570312 73.816406 C 679.824219 61.195312 674.894531 26.703125 647.664062 26.703125 C 614.707031 26.703125 614.367188 77.390625 646.761719 78.339844 C 652.726562 97.703125 656.164062 117.527344 656.421875 137.859375 C 656.671875 157.992188 655.464844 181.503906 646.328125 199.839844 C 641.621094 209.285156 655.804688 217.621094 660.53125 208.140625 C 670.449219 188.234375 672.71875 164.113281 672.882812 142.136719 C 673.050781 118.957031 669.402344 95.933594 662.570312 73.816406 Z M 647.796875 64.929688 C 641.363281 64.929688 636.148438 59.714844 636.148438 53.285156 C 636.148438 46.855469 641.363281 41.640625 647.796875 41.640625 C 654.230469 41.640625 659.445312 46.855469 659.445312 53.285156 C 659.445312 59.714844 654.230469 64.929688 647.796875 64.929688 Z M 647.796875 64.929688 " fill-opacity="1" fill-rule="nonzero"/></g><path fill="#0e0f1a" d="M 663.621094 346.148438 C 657.410156 384.726562 600.484375 390.574219 595.308594 346.148438 C 590.132812 301.726562 608.761719 283.023438 630.5 283.023438 C 659.480469 283.023438 669.832031 307.574219 663.621094 346.148438 Z M 418.308594 341.933594 C 426.949219 311.367188 438.566406 285.246094 452.074219 263.050781 C 450.890625 262.960938 449.679688 262.898438 448.425781 262.898438 C 426.6875 262.898438 408.058594 281.601562 413.234375 326.023438 C 413.96875 332.339844 415.777344 337.601562 418.308594 341.933594 Z M 418.308594 341.933594 " fill-opacity="1" fill-rule="nonzero"/><path fill="#2e2767" d="M 747.867188 669.269531 C 747.746094 669.683594 747.597656 670.089844 747.453125 670.492188 C 753.308594 672.582031 758.761719 673.65625 758.617188 678.375 C 758.515625 681.78125 753.28125 686.296875 746.648438 685.996094 C 743.203125 685.839844 739.457031 684.75 736.261719 683.53125 C 739.441406 686.425781 741.722656 689.007812 740.222656 692.257812 C 738.792969 695.351562 732.203125 697.457031 726.222656 694.585938 C 722.625 692.855469 719.152344 689.824219 716.515625 687.148438 C 698.238281 685.796875 681.335938 672.6875 670.757812 658.441406 C 663.488281 648.652344 658.34375 637.476562 653.949219 626.160156 C 649.246094 614.046875 645.472656 601.570312 642.652344 588.882812 C 636.984375 563.378906 635.070312 537.058594 637.085938 511.007812 C 637.292969 508.339844 639.179688 506.074219 642.023438 506.074219 C 644.542969 506.074219 647.164062 508.347656 646.957031 511.007812 C 644.851562 538.234375 647.015625 565.664062 653.5625 592.179688 C 656.457031 603.890625 660.152344 615.414062 664.683594 626.59375 C 668.855469 636.890625 674.019531 647.15625 681.101562 655.78125 C 687.648438 663.753906 695.957031 670.734375 705.710938 674.402344 C 714.066406 677.546875 724.429688 679.089844 732.484375 674.257812 C 741.5625 668.808594 739.164062 657.824219 735.425781 649.746094 C 733.046875 644.609375 730.097656 639.773438 727.457031 634.769531 C 724.617188 629.394531 722.023438 623.894531 719.652344 618.292969 C 710.304688 596.25 704.695312 572.878906 702.925781 549.003906 C 702.726562 546.332031 705.34375 544.066406 707.863281 544.066406 C 710.671875 544.066406 712.601562 546.34375 712.796875 549.003906 C 714.886719 577.132812 722.804688 604.839844 735.984375 629.789062 C 739.878906 637.160156 744.804688 644.769531 747.253906 652.945312 C 747.875 653.074219 748.445312 653.164062 748.90625 653.179688 C 756.101562 653.480469 762.910156 651.691406 764.605469 656.761719 C 765.683594 659.992188 762.324219 666.039062 756 668.042969 C 753.480469 668.839844 750.609375 669.167969 747.867188 669.269531 Z M 484.371094 353.808594 C 482.554688 360.121094 477.050781 366.253906 470.601562 366.503906 C 469.097656 366.5625 467.796875 366.3125 466.765625 365.820312 C 465.011719 364.988281 464.164062 364.265625 462.914062 362.78125 C 461.039062 360.550781 460.046875 357.40625 460.132812 354.390625 C 460.28125 349.304688 452.378906 349.308594 452.234375 354.390625 C 451.945312 364.3125 459.722656 374.476562 470.15625 374.414062 C 480.71875 374.347656 489.210938 365.566406 491.988281 355.910156 C 493.394531 351.015625 485.773438 348.925781 484.371094 353.808594 Z M 484.371094 353.808594 " fill-opacity="1" fill-rule="nonzero"/></svg>