<svg width="387" height="89" xmlns="http://www.w3.org/2000/svg" xmlns:xlink="http://www.w3.org/1999/xlink" xml:space="preserve" overflow="hidden"><defs><clipPath id="clip0"><rect x="337" y="234" width="387" height="89"/></clipPath><clipPath id="clip1"><rect x="349" y="253" width="373" height="68"/></clipPath><clipPath id="clip2"><path d="M716.707 290.877C716.707 304.475 704.841 315.511 692.185 315.511L360.184 315.511C356.624 315.511 353.064 314.723 349.9 313.343 354.053 317.679 359.788 320.241 366.922 320.241L698.118 320.241C710.577 320.241 720.86 309.993 720.86 297.577L720.86 268.103C720.86 262.387 718.685 257.264 715.323 253.322 716.312 255.884 716.707 258.643 716.707 261.402L716.707 290.877"/></clipPath><clipPath id="clip3"><rect x="337" y="238" width="379" height="76"/></clipPath><clipPath id="clip4"><path d="M360.184 313.54 691.789 313.54C704.248 313.54 714.532 303.292 714.532 290.877L714.532 261.402C714.532 248.986 704.248 238.739 691.789 238.739L360.184 238.739C347.725 238.739 337.441 248.986 337.441 261.402L337.441 290.877C337.441 303.489 347.725 313.54 360.184 313.54"/></clipPath><clipPath id="clip5"><rect x="335" y="236" width="389" height="87"/></clipPath><clipPath id="clip6"><path d="M712.752 248.395C708.401 241.498 700.688 236.768 691.789 236.768L360.184 236.768C346.538 236.768 335.463 247.804 335.463 261.402L335.463 290.877C335.463 298.957 339.419 306.051 345.352 310.584 349.702 317.482 357.415 322.211 367.244 322.211L697.92 322.211C711.565 322.211 722.64 311.175 722.64 297.577L722.64 268.103C722.64 260.023 718.685 252.928 712.752 248.395M337.441 290.877 337.441 261.402C337.441 248.986 347.725 238.739 360.184 238.739L691.789 238.739C704.248 238.739 714.532 248.986 714.532 261.402L714.532 290.877C714.532 303.292 704.248 313.54 691.789 313.54L360.184 313.54C347.725 313.54 337.441 303.489 337.441 290.877M720.86 297.577C720.86 309.993 710.379 320.241 697.92 320.241L367.244 320.241C359.986 320.241 354.251 317.679 350.098 313.343 353.262 314.723 356.624 315.511 360.381 315.511L691.987 315.511C705.633 315.511 716.707 304.475 716.707 290.877L716.707 261.402C716.707 258.643 716.114 255.884 715.323 253.322 718.685 257.264 720.86 262.387 720.86 268.103L720.86 297.577"/></clipPath></defs><g clip-path="url(#clip0)" transform="translate(-337 -234)"><g clip-path="url(#clip1)"><g clip-path="url(#clip2)"><path d="M415.628 273.023 801.899 273.023 801.899 357.764 415.628 357.764Z" fill="#191919" transform="matrix(1.00349 0 0 1 -81.6169 -36.2549)"/></g></g><g clip-path="url(#clip3)"><g clip-path="url(#clip4)"><path d="M415.628 273.023 801.899 273.023 801.899 357.764 415.628 357.764Z" fill="#384DBF" transform="matrix(1.00349 0 0 1 -81.6169 -36.2549)"/></g></g><g clip-path="url(#clip5)"><g clip-path="url(#clip6)"><path d="M415.628 273.023 801.899 273.023 801.899 357.764 415.628 357.764Z" fill="#191919" transform="matrix(1.00349 0 0 1 -81.6169 -36.2549)"/></g></g><path d="M26.2868-44.2551 2.92153-44.2551 2.92153 0 17.2595 0 17.2595-15.6656 27.4382-15.6656C36.3756-16.2845 41.42-21.2424 41.42-29.8272 41.42-39.0309 35.9331-44.2551 26.2868-44.2551ZM24.3403-26.5531 17.2595-26.5531 17.2595-33.1913 24.3403-33.1913C26.9956-33.1913 28.5895-31.9501 28.5895-29.8272 28.5895-27.7908 26.9956-26.5531 24.3403-26.5531Z" fill="#FFFFFF" transform="matrix(1.00349 0 0 1 452.906 297.618)"/><path d="M17.2595-44.2551 2.92153-44.2551 2.92153 0 17.2595 0Z" fill="#FFFFFF" transform="matrix(1.00349 0 0 1 496.336 297.618)"/><path d="M27.8807-18.4972 41.7761-16.2845C39.5634-5.48694 32.569 0.708773 22.3039 0.708773 9.55979 0.708773 2.38908-7.61326 2.38908-22.1275 2.38908-36.7317 9.55979-44.9604 22.3039-44.9604 32.569-44.9604 39.5634-38.8546 41.7761-27.9671L27.8807-25.7544C27.1719-30.0935 25.1355-32.569 22.3938-32.569 18.6736-32.569 16.5507-28.8522 16.5507-22.1275 16.5507-15.4893 18.6736-11.7725 22.3938-11.7725 25.3118-11.7725 27.2618-14.1616 27.8807-18.4972Z" fill="#FFFFFF" transform="matrix(1.00349 0 0 1 516.586 297.618)"/><path d="M26.9057 0 41.8626 0 28.057-25.4017 41.5998-44.2551 27.1719-44.2551 17.2595-30.1799 17.2595-44.2551 2.92153-44.2551 2.92153 0 17.2595 0 17.2595-10.1787 19.5587-13.5427Z" fill="#FFFFFF" transform="matrix(1.00349 0 0 1 560.816 297.618)"/><path d="M4.69173-13.9853 15.4893-13.9853 17.3459-44.2551 2.92153-44.2551ZM10.0888-10.7976C5.57683-10.7976 3.00796-8.76113 3.00796-5.04439 3.00796-1.41755 5.57683 0.708773 10.0888 0.708773 14.6906 0.708773 17.2595-1.41755 17.2595-5.04439 17.2595-8.76113 14.6906-10.7976 10.0888-10.7976Z" fill="#FFFFFF" transform="matrix(1.00349 0 0 1 603.003 297.618)"/></g></svg>